<svg version="1.0" standalone="no" xmlns="http://www.w3.org/2000/svg" viewBox="0 0 1440 320">

 <g>
  <title>Layer 1</title>
  <path stroke="null" id="svg_1" d="m0,81.27334c16.41667,3.77157 -15,-1.06378 49.25,11.31472c64.25,12.3785 225.25001,33.81523 321.25001,30.59166c96,-3.22357 176.50001,6.67279 388.00001,-45.74243c211.50001,-52.41521 302.50001,-50.15872 393.50001,-47.74104c91,2.41768 192.00001,23.8544 240.00001,37.84469l48,13.7324l0,-82.52334l-48,0c-48,0 -144.00001,0 -240.00001,0c-96,0 -192.00001,0 -288.00001,0c-96,0 -192.00001,0 -288.00001,0c-96,0 -192.00001,0 -288.00001,0c-96,0 -192.00001,0 -240.00001,0l-48,0c0,27.50778 0,55.01556 0,82.52334z" fill="#9e579e"/>
 </g>
</svg>